<?xml version="1.0" encoding="UTF-8" standalone="no"?>
<!DOCTYPE svg PUBLIC "-//W3C//DTD SVG 1.1//EN" "http://www.w3.org/Graphics/SVG/1.1/DTD/svg11.dtd">
<svg xmlns="http://www.w3.org/2000/svg" version="1.1" viewBox="0.00 0.00 70.00 70.00">
<clipPath id="clipping-path-0">
<path d="
  M 0.00 0.00
  L 70.00 0.00
  L 70.00 70.00
  L 0.00 70.00
  L 0.00 0.00
  Z"/>
</clipPath>
<g stroke-width="2.00" fill="none" stroke-linecap="butt" clip-path="url(#clipping-path-0)">
<path stroke="#1e3174" vector-effect="non-scaling-stroke" d="
  M 33.42 65.74
  Q 34.72 67.59 36.75 67.55
  Q 39.41 67.51 41.24 64.53"
/>
<path stroke="#2260a0" vector-effect="non-scaling-stroke" d="
  M 41.24 64.53
  Q 45.39 60.96 48.88 56.65
  Q 56.56 47.16 63.25 36.84
  A 2.36 2.35 46.8 0 0 63.32 34.39
  Q 60.48 29.41 56.84 24.99
  Q 48.95 15.42 39.86 6.48
  Q 38.22 4.87 36.21 4.01
  C 33.42 2.83 29.11 6.83 27.14 8.73
  Q 17.74 17.82 9.22 26.30
  Q 4.66 30.84 7.83 35.46
  C 8.91 37.03 9.86 38.70 11.10 40.15
  Q 19.72 50.24 29.11 61.89
  Q 30.31 63.38 33.42 65.74"
/>
<path stroke="#2871bf" vector-effect="non-scaling-stroke" d="
  M 41.24 64.53
  L 38.02 66.68
  Q 37.62 66.95 37.13 66.91
  Q 35.31 66.75 33.42 65.74"
/>
<path stroke="#296aae" vector-effect="non-scaling-stroke" d="
  M 26.77 17.42
  Q 19.04 21.28 13.88 28.17
  A 0.52 0.52 0.0 0 0 14.16 28.98
  Q 14.47 29.07 14.78 28.99
  Q 15.77 28.74 16.40 27.96
  Q 18.77 24.96 21.65 22.43
  A 0.98 0.97 61.8 0 1 23.23 22.91
  Q 23.29 23.13 23.68 24.01"
/>
<path stroke="#8ec9e3" vector-effect="non-scaling-stroke" d="
  M 23.68 24.01
  Q 21.78 26.90 23.51 29.21"
/>
<path stroke="#296aae" vector-effect="non-scaling-stroke" d="
  M 23.51 29.21
  Q 23.07 31.33 21.90 33.03
  C 20.77 34.67 20.42 35.98 21.66 37.53
  Q 23.09 39.32 25.82 41.88"
/>
<path stroke="#2986d8" vector-effect="non-scaling-stroke" d="
  M 25.82 41.88
  Q 25.75 42.80 24.87 42.77"
/>
<path stroke="#2871bf" vector-effect="non-scaling-stroke" d="
  M 24.87 42.77
  C 21.37 39.91 18.35 36.26 14.18 34.44
  A 1.02 1.01 -76.6 0 0 12.76 35.32
  C 12.65 37.66 15.80 42.51 17.28 44.56
  Q 22.49 51.77 28.38 59.27
  C 29.94 61.26 33.99 65.52 36.73 64.60
  Q 39.58 63.65 41.99 61.50
  C 46.84 57.18 51.62 51.29 54.86 46.16
  Q 56.56 43.46 56.35 39.86
  Q 56.32 39.32 55.77 39.35
  Q 54.46 39.40 53.10 40.29"
/>
<path stroke="#2986d8" vector-effect="non-scaling-stroke" d="
  M 53.10 40.29
  Q 52.56 40.23 51.90 40.56
  Q 51.34 40.84 50.77 40.89
  Q 49.67 40.99 49.48 39.87
  A 1.35 1.32 55.3 0 1 49.63 38.99
  Q 49.93 38.46 49.94 37.88"
/>
<path stroke="#296aae" vector-effect="non-scaling-stroke" d="
  M 49.94 37.88
  L 53.20 34.38
  Q 53.54 34.00 53.35 33.53
  Q 52.43 31.33 50.65 29.69"
/>
<path stroke="#2986d8" vector-effect="non-scaling-stroke" d="
  M 50.65 29.69
  Q 49.87 27.36 47.51 25.93
  Q 47.03 25.63 46.80 25.12
  Q 45.57 22.28 44.38 20.98
  Q 41.26 17.59 37.63 15.11
  C 36.61 14.41 35.36 14.33 34.18 14.32
  Q 33.03 14.31 31.70 15.04
  Q 29.28 16.37 26.77 17.42"
/>
<path stroke="#25519b" vector-effect="non-scaling-stroke" d="
  M 50.65 29.69
  Q 45.06 23.67 38.07 19.55
  Q 35.54 18.06 32.61 17.74
  Q 29.69 17.43 26.77 17.42"
/>
<path stroke="#25519b" vector-effect="non-scaling-stroke" d="
  M 49.94 37.88
  Q 48.36 39.50 43.41 43.92
  Q 37.48 49.21 30.89 45.42
  Q 28.25 43.91 25.82 41.88"
/>
<path stroke="#8b94a6" vector-effect="non-scaling-stroke" d="
  M 23.51 29.21
  L 29.08 32.52
  Q 30.76 33.52 31.85 31.89
  L 35.42 26.56
  Q 36.31 25.22 34.91 24.43
  Q 31.27 22.38 28.42 19.31
  A 0.56 0.56 0.0 0 0 27.58 19.33
  L 23.68 24.01"
/>
<path stroke="#2557ac" vector-effect="non-scaling-stroke" d="
  M 24.87 42.77
  Q 26.31 44.57 28.05 45.91
  Q 30.97 48.16 31.47 48.69
  Q 33.79 51.15 35.38 54.43
  A 2.76 2.76 0.0 0 0 39.29 55.59
  Q 42.03 53.94 44.25 50.80
  Q 48.32 45.03 53.10 40.29"
/>
</g>
<path fill="#253571" d="
  M 50.65 29.69
  Q 52.43 31.33 53.35 33.53
  Q 53.54 34.00 53.20 34.38
  L 49.94 37.88
  Q 48.36 39.50 43.41 43.92
  Q 37.48 49.21 30.89 45.42
  Q 28.25 43.91 25.82 41.88
  Q 23.09 39.32 21.66 37.53
  C 20.42 35.98 20.77 34.67 21.90 33.03
  Q 23.07 31.33 23.51 29.21
  L 29.08 32.52
  Q 30.76 33.52 31.85 31.89
  L 35.42 26.56
  Q 36.31 25.22 34.91 24.43
  Q 31.27 22.38 28.42 19.31
  A 0.56 0.56 0.0 0 0 27.58 19.33
  L 23.68 24.01
  Q 23.29 23.13 23.23 22.91
  A 0.98 0.97 61.8 0 0 21.65 22.43
  Q 18.77 24.96 16.40 27.96
  Q 15.77 28.74 14.78 28.99
  Q 14.47 29.07 14.16 28.98
  A 0.52 0.52 0.0 0 1 13.88 28.17
  Q 19.04 21.28 26.77 17.42
  Q 29.69 17.43 32.61 17.74
  Q 35.54 18.06 38.07 19.55
  Q 45.06 23.67 50.65 29.69
  Z"
/>
<path fill="#2c9feb" d="
  M 41.24 64.53
  L 38.02 66.68
  Q 37.62 66.95 37.13 66.91
  Q 35.31 66.75 33.42 65.74
  Q 30.31 63.38 29.11 61.89
  Q 19.72 50.24 11.10 40.15
  C 9.86 38.70 8.91 37.03 7.83 35.46
  Q 4.66 30.84 9.22 26.30
  Q 17.74 17.82 27.14 8.73
  C 29.11 6.83 33.42 2.83 36.21 4.01
  Q 38.22 4.87 39.86 6.48
  Q 48.95 15.42 56.84 24.99
  Q 60.48 29.41 63.32 34.39
  A 2.36 2.35 46.8 0 1 63.25 36.84
  Q 56.56 47.16 48.88 56.65
  Q 45.39 60.96 41.24 64.53
  Z
  M 26.77 17.42
  Q 19.04 21.28 13.88 28.17
  A 0.52 0.52 0.0 0 0 14.16 28.98
  Q 14.47 29.07 14.78 28.99
  Q 15.77 28.74 16.40 27.96
  Q 18.77 24.96 21.65 22.43
  A 0.98 0.97 61.8 0 1 23.23 22.91
  Q 23.29 23.13 23.68 24.01
  Q 21.78 26.90 23.51 29.21
  Q 23.07 31.33 21.90 33.03
  C 20.77 34.67 20.42 35.98 21.66 37.53
  Q 23.09 39.32 25.82 41.88
  Q 25.75 42.80 24.87 42.77
  C 21.37 39.91 18.35 36.26 14.18 34.44
  A 1.02 1.01 -76.6 0 0 12.76 35.32
  C 12.65 37.66 15.80 42.51 17.28 44.56
  Q 22.49 51.77 28.38 59.27
  C 29.94 61.26 33.99 65.52 36.73 64.60
  Q 39.58 63.65 41.99 61.50
  C 46.84 57.18 51.62 51.29 54.86 46.16
  Q 56.56 43.46 56.35 39.86
  Q 56.32 39.32 55.77 39.35
  Q 54.46 39.40 53.10 40.29
  Q 52.56 40.23 51.90 40.56
  Q 51.34 40.84 50.77 40.89
  Q 49.67 40.99 49.48 39.87
  A 1.35 1.32 55.3 0 1 49.63 38.99
  Q 49.93 38.46 49.94 37.88
  L 53.20 34.38
  Q 53.54 34.00 53.35 33.53
  Q 52.43 31.33 50.65 29.69
  Q 49.87 27.36 47.51 25.93
  Q 47.03 25.63 46.80 25.12
  Q 45.57 22.28 44.38 20.98
  Q 41.26 17.59 37.63 15.11
  C 36.61 14.41 35.36 14.33 34.18 14.32
  Q 33.03 14.31 31.70 15.04
  Q 29.28 16.37 26.77 17.42
  Z"
/>
<path fill="#f0f3da" d="
  M 23.51 29.21
  Q 21.78 26.90 23.68 24.01
  L 27.58 19.33
  A 0.56 0.56 0.0 0 1 28.42 19.31
  Q 31.27 22.38 34.91 24.43
  Q 36.31 25.22 35.42 26.56
  L 31.85 31.89
  Q 30.76 33.52 29.08 32.52
  L 23.51 29.21
  Z"
/>
<g fill="#256cc5">
<path d="
  M 50.65 29.69
  Q 45.06 23.67 38.07 19.55
  Q 35.54 18.06 32.61 17.74
  Q 29.69 17.43 26.77 17.42
  Q 29.28 16.37 31.70 15.04
  Q 33.03 14.31 34.18 14.32
  C 35.36 14.33 36.61 14.41 37.63 15.11
  Q 41.26 17.59 44.38 20.98
  Q 45.57 22.28 46.80 25.12
  Q 47.03 25.63 47.51 25.93
  Q 49.87 27.36 50.65 29.69
  Z"
/>
<path d="
  M 49.94 37.88
  Q 49.93 38.46 49.63 38.99
  A 1.35 1.32 55.3 0 0 49.48 39.87
  Q 49.67 40.99 50.77 40.89
  Q 51.34 40.84 51.90 40.56
  Q 52.56 40.23 53.10 40.29
  Q 48.32 45.03 44.25 50.80
  Q 42.03 53.94 39.29 55.59
  A 2.76 2.76 0.0 0 1 35.38 54.43
  Q 33.79 51.15 31.47 48.69
  Q 30.97 48.16 28.05 45.91
  Q 26.31 44.57 24.87 42.77
  Q 25.75 42.80 25.82 41.88
  Q 28.25 43.91 30.89 45.42
  Q 37.48 49.21 43.41 43.92
  Q 48.36 39.50 49.94 37.88
  Z"
/>
</g>
<g fill="#244293">
<path d="
  M 24.87 42.77
  Q 26.31 44.57 28.05 45.91
  Q 30.97 48.16 31.47 48.69
  Q 33.79 51.15 35.38 54.43
  A 2.76 2.76 0.0 0 0 39.29 55.59
  Q 42.03 53.94 44.25 50.80
  Q 48.32 45.03 53.10 40.29
  Q 54.46 39.40 55.77 39.35
  Q 56.32 39.32 56.35 39.86
  Q 56.56 43.46 54.86 46.16
  C 51.62 51.29 46.84 57.18 41.99 61.50
  Q 39.58 63.65 36.73 64.60
  C 33.99 65.52 29.94 61.26 28.38 59.27
  Q 22.49 51.77 17.28 44.56
  C 15.80 42.51 12.65 37.66 12.76 35.32
  A 1.02 1.01 -76.6 0 1 14.18 34.44
  C 18.35 36.26 21.37 39.91 24.87 42.77
  Z"
/>
<path d="
  M 41.24 64.53
  Q 39.41 67.51 36.75 67.55
  Q 34.72 67.59 33.42 65.74
  Q 35.31 66.75 37.13 66.91
  Q 37.62 66.95 38.02 66.68
  L 41.24 64.53
  Z"
/>
</g>
<path fill="#172054" d="
  M 47.43 61.14
  Q 43.65 64.67 39.93 68.58
  Q 39.53 69.00 38.95 69.00
  L 34.03 68.99
  A 1.23 1.20 67.0 0 1 33.17 68.63
  Q 29.56 64.95 25.89 61.31
  C 25.16 60.58 25.04 59.75 24.36 59.06
  Q 20.98 55.60 18.53 52.65
  Q 16.51 50.22 14.41 47.73
  Q 9.86 42.35 5.81 36.21
  C 1.31 29.38 5.70 25.60 10.22 21.11
  Q 18.39 12.99 26.58 4.89
  C 30.67 0.86 36.17 -1.17 40.85 3.25
  Q 54.42 16.09 64.86 31.73
  Q 67.33 35.43 64.88 39.58
  Q 61.05 46.05 56.80 50.87
  C 53.72 54.35 50.93 57.89 47.43 61.14
  Z
  M 33.42 65.74
  Q 34.72 67.59 36.75 67.55
  Q 39.41 67.51 41.24 64.53
  Q 45.39 60.96 48.88 56.65
  Q 56.56 47.16 63.25 36.84
  A 2.36 2.35 46.8 0 0 63.32 34.39
  Q 60.48 29.41 56.84 24.99
  Q 48.95 15.42 39.86 6.48
  Q 38.22 4.87 36.21 4.01
  C 33.42 2.83 29.11 6.83 27.14 8.73
  Q 17.74 17.82 9.22 26.30
  Q 4.66 30.84 7.83 35.46
  C 8.91 37.03 9.86 38.70 11.10 40.15
  Q 19.72 50.24 29.11 61.89
  Q 30.31 63.38 33.42 65.74
  Z"
/>
</svg>
